<svg viewBox="0 0 576 512" xmlns="http://www.w3.org/2000/svg"><path d="m288 32.01h-256c-17.67 0-32 14.31-32 32v64c0 17.69 14.33 32 32 32s32-14.31 32-32v-32h64v320h-32c-17.67 0-32 14.31-32 32s14.33 32 32 32h128c17.67 0 32-14.31 32-32s-14.33-32-32-32h-32v-320h64v32c0 17.69 14.33 32 32 32s32-14.31 32-32v-64c0-17.68-14.3-32-32-32zm233.4 329.39-9.4 9.4v-229.5l9.375 9.375c6.225 6.225 14.425 9.325 22.625 9.325s16.38-3.125 22.62-9.375c12.5-12.5 12.5-32.75 0-45.25l-64-64c-12.5-12.5-32.75-12.5-45.25 0l-64 64c-12.5 12.5-12.5 32.75 0 45.25s32.75 12.5 45.25 0l9.38-9.325v229.5l-9.375-9.375c-12.5-12.5-32.75-12.5-45.25 0s-12.5 32.75 0 45.25l64 64c6.225 6.225 14.425 9.325 22.625 9.325s16.38-3.118 22.62-9.368l64-64c12.5-12.5 12.5-32.75 0-45.25s-32.72-12.482-45.22.018z"/></svg>